<svg width="39.000000" height="38.982483" viewBox="0 0 39 38.9825" fill="none" xmlns="http://www.w3.org/2000/svg" xmlns:xlink="http://www.w3.org/1999/xlink">
	<desc>
			Created with Pixso.
	</desc>
	<defs>
		<linearGradient x1="44.000126" y1="0.000008" x2="0.000122" y2="39.000004" id="paint_linear_177_1739_0" gradientUnits="userSpaceOnUse">
			<stop offset="0.250000" stop-color="#3B768F"/>
			<stop offset="0.536458" stop-color="#3EC6FF"/>
			<stop offset="0.817708" stop-color="#3B768F"/>
		</linearGradient>
	</defs>
	<path id="Vector" d="M0.63 0C0.26 0.07 -0.01 0.39 0 0.77L0 31.98C0 32.4 0.35 32.75 0.78 32.75L13.25 32.75L13.25 31.2L1.56 31.2L1.56 1.56L37.44 1.56L37.44 31.2L25.74 31.2L25.74 32.75L38.21 32.75C38.64 32.75 39 32.4 39 31.98L39 0.77C39 0.35 38.64 0 38.21 0L0.78 0C0.75 0 0.73 0 0.7 0C0.68 0 0.65 0 0.63 0ZM7.79 7.02L7.79 8.58L31.2 8.58L31.2 7.02L7.79 7.02ZM7.79 10.92L7.79 12.48L31.2 12.48L31.2 10.92L7.79 10.92ZM7.79 14.82L7.79 16.37L31.2 16.37L31.2 14.82L7.79 14.82ZM19.42 18.64C18.61 18.64 17.96 19.13 17.54 19.79C16.78 19.54 15.95 19.62 15.33 20.15C14.69 20.7 14.5 21.5 14.6 22.27C13.85 22.58 13.28 23.18 13.11 23.93C13.11 23.96 13.11 23.98 13.11 24C13.01 24.76 13.35 25.45 13.89 25.98C13.54 26.69 13.4 27.51 13.82 28.22C14.05 28.63 14.41 28.89 14.82 29.07L14.82 38.22C14.82 38.49 14.97 38.74 15.21 38.88C15.45 39.01 15.75 39.01 15.99 38.87L19.5 36.78L23 38.87C23.24 39.01 23.54 39.01 23.78 38.88C24.02 38.74 24.17 38.49 24.17 38.22L24.17 28.76C24.36 28.62 24.53 28.49 24.66 28.29C24.67 28.27 24.68 28.25 24.69 28.22C25.09 27.52 25 26.73 24.66 26.03C25.36 25.51 25.82 24.78 25.74 24C25.73 23.98 25.72 23.96 25.71 23.93C25.53 23.14 24.95 22.57 24.22 22.25C24.31 21.48 24.14 20.69 23.52 20.15C22.87 19.6 22.04 19.58 21.3 19.79C20.88 19.15 20.26 18.64 19.42 18.64ZM19.42 20.2C19.78 20.2 20.04 20.42 20.18 20.79C20.26 21.01 20.44 21.18 20.66 21.25C20.68 21.26 20.78 21.26 20.81 21.27C20.85 21.29 20.82 21.3 20.91 21.3C20.98 21.33 20.99 21.37 21.13 21.37C21.26 21.37 21.38 21.34 21.49 21.27C21.91 21.07 22.2 21.07 22.49 21.32C22.8 21.59 22.87 21.94 22.74 22.27C22.65 22.54 22.71 22.84 22.91 23.05C22.94 23.11 22.97 23.22 23.08 23.32C23.18 23.43 23.32 23.51 23.47 23.54C23.9 23.64 24.07 23.83 24.17 24.25C24.21 24.61 24.15 24.8 23.59 25C23.28 25.12 23.08 25.41 23.08 25.74L23.08 26.05C23.08 26.21 23.13 26.36 23.22 26.49C23.45 26.8 23.46 27.17 23.35 27.42C23.11 27.72 22.76 27.89 22.47 27.86C22.23 27.83 22 27.91 21.83 28.08L21.59 28.29C21.45 28.44 21.37 28.65 21.37 28.86C21.37 29.27 21.21 29.48 20.86 29.61C20.85 29.61 20.84 29.61 20.84 29.61C20.84 29.6 20.71 29.64 20.59 29.64C20.38 29.64 20.18 29.54 19.96 29.32C19.82 29.18 19.62 29.1 19.42 29.1L19.03 29.1C18.83 29.09 18.62 29.17 18.47 29.32C18.16 29.63 17.9 29.72 17.59 29.61C17.29 29.5 17.08 29.15 17.08 28.86C17.08 28.64 16.99 28.44 16.84 28.29L16.62 28.08C16.45 27.9 16.2 27.82 15.96 27.86C15.65 27.9 15.33 27.73 15.18 27.47C15.04 27.22 15.07 26.82 15.3 26.49C15.39 26.36 15.45 26.21 15.45 26.05L15.45 25.74C15.45 25.45 15.29 25.19 15.03 25.05C14.83 24.93 14.66 24.54 14.67 24.25C14.78 23.82 14.97 23.58 15.3 23.54C15.48 23.52 15.64 23.44 15.77 23.32C15.88 23.2 15.93 23.08 15.96 23.03C16.13 22.82 16.18 22.53 16.08 22.27C15.96 21.94 16.02 21.59 16.33 21.32C16.62 21.07 17.03 21.07 17.25 21.23C17.49 21.39 17.8 21.41 18.06 21.27C18.07 21.27 18.07 21.27 18.08 21.27C18.11 21.27 18.13 21.26 18.15 21.25C18.42 21.17 18.62 20.96 18.69 20.69C18.75 20.45 19.07 20.2 19.42 20.2ZM22.62 29.85L22.62 36.85L19.88 35.22C19.64 35.08 19.35 35.08 19.11 35.22L16.37 36.85L16.37 30.66C16.56 30.83 16.77 30.98 17.03 31.07C17.81 31.36 18.55 31.08 19.15 30.66C19.16 30.66 19.17 30.66 19.18 30.66C19.18 30.66 19.2 30.66 19.2 30.66C19.58 30.95 20.03 31.2 20.59 31.2C20.73 31.2 21.03 31.19 21.4 31.05C21.41 31.04 21.43 31.03 21.45 31.02C21.47 31.02 21.47 31.04 21.49 31.02L21.49 31C22.01 30.77 22.39 30.36 22.62 29.85Z" fill="url(#paint_linear_177_1739_0)" fill-opacity="1.000000" fill-rule="nonzero"/>
</svg>
