<svg width="33.000000" height="33.000000" viewBox="0 0 33 33" fill="none" xmlns="http://www.w3.org/2000/svg" xmlns:xlink="http://www.w3.org/1999/xlink">
	<desc>
			Created with Pixso.
	</desc>
	<defs>
		<clipPath id="clip177_1853">
			<rect id="icons8_checked_radio_button 2" rx="-0.500000" width="32.000000" height="32.000000" transform="translate(0.500000 0.500000)" fill="white" fill-opacity="0"/>
		</clipPath>
		<linearGradient x1="37.061859" y1="5.939945" x2="1.320414" y2="26.409124" id="paint_linear_177_1854_0" gradientUnits="userSpaceOnUse">
			<stop offset="0.250000" stop-color="#3B768F"/>
			<stop offset="0.536458" stop-color="#3EC6FF"/>
			<stop offset="0.817708" stop-color="#3B768F"/>
		</linearGradient>
	</defs>
	<rect id="icons8_checked_radio_button 2" rx="-0.500000" width="32.000000" height="32.000000" transform="translate(0.500000 0.500000)" fill="#FFFFFF" fill-opacity="0"/>
	<g clip-path="url(#clip177_1853)">
		<path id="Vector" d="M11.55 5.93C5.9 5.93 1.32 10.52 1.32 16.16C1.32 21.81 5.9 26.39 11.55 26.39C17.19 26.39 21.78 21.81 21.78 16.16C21.78 10.52 17.19 5.93 11.55 5.93ZM17.16 11.87C17.32 11.87 17.49 11.94 17.62 12.07C17.88 12.33 17.88 12.74 17.62 13L9.7 20.92C9.57 21.05 9.4 21.12 9.24 21.12C9.07 21.12 8.9 21.05 8.77 20.92L5.47 17.62C5.21 17.36 5.21 16.95 5.47 16.69C5.73 16.43 6.14 16.43 6.4 16.69L9.24 19.52L16.69 12.07C16.82 11.94 16.99 11.87 17.16 11.87ZM25.08 15.84C24.9 15.84 24.73 15.9 24.61 16.03C24.49 16.15 24.41 16.32 24.41 16.5C24.41 16.67 24.49 16.84 24.61 16.96C24.73 17.09 24.9 17.15 25.08 17.15L33 17.15L33 15.84L25.08 15.84Z" fill="url(#paint_linear_177_1854_0)" fill-opacity="1.000000" fill-rule="nonzero"/>
	</g>
</svg>
