<svg width="50.000000" height="50.000000" viewBox="0 0 50 50" fill="none" xmlns="http://www.w3.org/2000/svg" xmlns:xlink="http://www.w3.org/1999/xlink">
	<desc>
			Created with Pixso.
	</desc>
	<defs>
		<clipPath id="clip177_1810">
			<rect id="icons8_conference 1" rx="-0.500000" width="49.000000" height="49.000000" transform="translate(0.500000 0.500000)" fill="white" fill-opacity="0"/>
		</clipPath>
		<linearGradient x1="56.410259" y1="0.015617" x2="0.000175" y2="49.682461" id="paint_linear_177_1811_0" gradientUnits="userSpaceOnUse">
			<stop offset="0.250000" stop-color="#3B768F"/>
			<stop offset="0.536458" stop-color="#3EC6FF"/>
			<stop offset="0.817708" stop-color="#3B768F"/>
		</linearGradient>
	</defs>
	<rect id="icons8_conference 1" rx="-0.500000" width="49.000000" height="49.000000" transform="translate(0.500000 0.500000)" fill="#FFFFFF" fill-opacity="0"/>
	<g clip-path="url(#clip177_1810)">
		<path id="Vector" d="M49.99 27.94C49.78 24.38 47.39 23.25 45.64 22.42C44.73 21.99 43.94 21.62 43.66 21.04C43.62 20.48 43.62 20.02 43.62 19.51L43.62 19.43C44.12 18.85 44.55 17.9 44.75 17.04C45.19 16.73 45.65 16.13 45.8 14.92C45.87 14.31 45.73 13.82 45.5 13.44C45.84 12.19 46.39 9.46 45.24 7.62C44.74 6.81 43.97 6.27 43 6.04C42.38 5.36 41.31 5 39.93 5L39.92 5C37.78 5.03 36.2 5.71 35.22 6.99C34.11 8.46 33.87 10.61 34.51 13.41C34.27 13.79 34.12 14.3 34.19 14.93C34.34 16.14 34.81 16.74 35.25 17.04C35.46 17.89 35.89 18.85 36.4 19.43L36.4 19.51C36.4 20.02 36.41 20.48 36.36 21.03C36.23 21.28 35.94 21.51 35.55 21.72C34.61 19.17 32.42 18.17 30.77 17.41C29.79 16.96 28.94 16.56 28.66 16.03C28.62 15.48 28.62 15.03 28.62 14.51L28.63 14.43C29.12 13.85 29.55 12.9 29.75 12.04C30.19 11.74 30.65 11.13 30.8 9.92C30.87 9.32 30.73 8.82 30.5 8.44C30.84 7.19 31.39 4.46 30.25 2.62C29.74 1.82 28.97 1.27 28 1.04C27.51 0.51 26.61 0.01 24.93 0.01C22.78 0.05 21.19 0.72 20.22 2.01C19.11 3.47 18.88 5.62 19.51 8.41C19.28 8.79 19.12 9.3 19.2 9.93C19.34 11.14 19.81 11.74 20.25 12.04C20.46 12.89 20.89 13.85 21.4 14.43L21.4 14.51C21.4 15.03 21.41 15.48 21.36 16.03C21.08 16.56 20.23 16.96 19.25 17.41C17.58 18.17 15.39 19.17 14.45 21.72C14.05 21.51 13.76 21.28 13.63 21.03C13.59 20.47 13.59 20.02 13.6 19.5L13.6 19.43C14.1 18.85 14.54 17.89 14.74 17.04C15.18 16.74 15.65 16.14 15.8 14.92C15.87 14.3 15.72 13.78 15.48 13.41C16.12 10.61 15.88 8.45 14.77 6.99C13.79 5.71 12.21 5.03 10.05 5C8.67 5 7.61 5.36 6.99 6.04C6.02 6.27 5.25 6.82 4.75 7.62C3.6 9.46 4.15 12.19 4.49 13.44C4.26 13.82 4.12 14.32 4.19 14.93C4.34 16.14 4.8 16.74 5.25 17.04C5.44 17.9 5.87 18.85 6.37 19.43L6.37 19.51C6.37 20.03 6.37 20.48 6.33 21.04C6.05 21.62 5.25 21.99 4.35 22.42C2.6 23.25 0.21 24.38 0 28L0 39C0 39.06 0 39.13 0.01 39.19C0.07 39.49 1.54 46.01 11.52 49.28C11.52 49.28 11.68 49.43 12.98 49.58C12.97 49.14 12.97 48.41 13.01 47.68C13.39 44.03 16.33 42.83 18.49 41.96C19.67 41.48 20.78 41.03 21.12 40.38C21.17 39.76 21.16 39.26 21.16 38.69L21.16 38.58C20.6 37.95 20.12 36.89 19.9 35.96C19.43 35.65 18.92 35.01 18.76 33.7C18.68 33.02 18.85 32.48 19.11 32.08C18.41 29.05 18.66 26.71 19.86 25.13C20.91 23.76 22.6 23.03 24.91 23C26.41 23 27.55 23.39 28.2 24.12C29.25 24.37 30.08 24.94 30.62 25.81C31.85 27.8 31.25 30.78 30.87 32.11C31.12 32.51 31.28 33.04 31.21 33.7C31.05 35.01 30.54 35.65 30.07 35.96C29.85 36.89 29.39 37.95 28.84 38.57L28.84 38.69C28.83 39.26 28.83 39.76 28.88 40.38C29.21 41.03 30.32 41.48 31.5 41.96C33.66 42.84 36.61 44.04 36.96 47.68C37.01 48.21 37 49.22 36.99 49.66C37.93 49.55 37.99 49.46 37.99 49.46C48.42 46.24 49.91 39.5 49.98 39.19C49.99 39.13 50 39.06 50 39L49.99 27.94Z" fill="url(#paint_linear_177_1811_0)" fill-opacity="1.000000" fill-rule="nonzero"/>
	</g>
</svg>
