<svg width="50.000000" height="50.000000" viewBox="0 0 50 50" fill="none" xmlns="http://www.w3.org/2000/svg" xmlns:xlink="http://www.w3.org/1999/xlink">
	<desc>
			Created with Pixso.
	</desc>
	<defs>
		<clipPath id="clip177_1804">
			<rect id="icons8_people 1" rx="-0.500000" width="49.000000" height="49.000000" transform="translate(0.500000 0.500000)" fill="white" fill-opacity="0"/>
		</clipPath>
		<linearGradient x1="56.410278" y1="4.999985" x2="0.000168" y2="43.017052" id="paint_linear_177_1805_0" gradientUnits="userSpaceOnUse">
			<stop offset="0.250000" stop-color="#3B768F"/>
			<stop offset="0.536458" stop-color="#3EC6FF"/>
			<stop offset="0.817708" stop-color="#3B768F"/>
		</linearGradient>
	</defs>
	<rect id="icons8_people 1" rx="-0.500000" width="49.000000" height="49.000000" transform="translate(0.500000 0.500000)" fill="#FFFFFF" fill-opacity="0"/>
	<g clip-path="url(#clip177_1804)">
		<path id="Vector" d="M26.9 5C18.03 5 14.74 11.85 17.28 17.65C16.96 17.86 16.45 18.52 16.56 19.68C16.77 21.79 17.72 22.3 18.25 22.4C18.46 24.41 19.73 26.74 20.46 27.06C20.46 28.43 20.44 29.58 20.34 31.06C18.72 35.3 8.39 34.32 7.06 41.93C7 42.26 7.34 43 8.03 43L42 43C43.01 43 42.99 42.25 42.93 41.9C41.58 34.32 31.27 35.3 29.65 31.06C29.55 29.47 29.53 28.43 29.53 27.06C30.26 26.74 31.44 24.3 31.65 22.4C32.18 22.4 33.02 21.76 33.34 19.65C33.44 18.49 33.01 17.76 32.59 17.65C34.28 15.54 33.97 6.9 27.75 6.9L26.9 5ZM15.15 10C8.48 10.11 5.55 15.42 7.56 19.96C7.34 20.07 6.92 20.63 7.03 21.59C7.24 23.3 7.88 23.71 8.31 23.71C8.52 25.32 9.46 27.11 10 27.43C10 28.5 10.01 28.47 9.9 29.75C9.03 32.48 0 32.28 0 39C0 39 0 40 1 40L5.53 40C7.05 35.67 11.21 34.01 14.34 32.78C16.07 32.1 17.83 31.41 18.37 30.56C18.43 29.63 18.46 28.84 18.46 27.96C17.51 26.88 16.81 25.19 16.46 23.75C15.65 23.14 14.77 21.99 14.56 19.84C14.46 18.82 14.68 17.97 15.03 17.31C14.23 14.84 14.28 12.27 15.15 10ZM38 10C37.04 10 35.91 10.07 34.84 10.25C35.64 12.59 35.67 15.4 34.96 17.4C35.28 18.09 35.42 18.92 35.34 19.84L35.31 19.9L35.31 19.96C35.01 21.93 34.29 23.12 33.43 23.78C33.11 25.13 32.45 26.83 31.53 27.93C31.53 28.79 31.56 29.57 31.62 30.56C32.16 31.41 33.93 32.1 35.65 32.78C38.78 34.01 42.93 35.67 44.46 40L49 40C50 40 50 39.03 50 39.03C50 31.29 41.44 33.12 40.15 29.59C40.04 28.41 40.03 28.52 40.03 27.34C40.56 27.02 41.55 25.22 41.65 23.71C42.08 23.71 42.72 23.27 42.93 21.56C43.04 20.7 42.72 20.07 42.4 19.96C43.69 18.25 43.48 11.5 38.65 11.5L38 10Z" fill="url(#paint_linear_177_1805_0)" fill-opacity="1.000000" fill-rule="nonzero"/>
	</g>
</svg>
