<svg width="50.000000" height="50.000000" viewBox="0 0 50 50" fill="none" xmlns="http://www.w3.org/2000/svg" xmlns:xlink="http://www.w3.org/1999/xlink">
	<desc>
			Created with Pixso.
	</desc>
	<defs>
		<clipPath id="clip177_1816">
			<rect id="icons8_skyscrapers 1" rx="-0.500000" width="49.000000" height="49.000000" transform="translate(0.500000 0.500000)" fill="white" fill-opacity="0"/>
		</clipPath>
		<linearGradient x1="52.641037" y1="3.000019" x2="3.000134" y2="47.019779" id="paint_linear_177_1817_0" gradientUnits="userSpaceOnUse">
			<stop offset="0.250000" stop-color="#3B768F"/>
			<stop offset="0.536458" stop-color="#3EC6FF"/>
			<stop offset="0.817708" stop-color="#3B768F"/>
		</linearGradient>
	</defs>
	<rect id="icons8_skyscrapers 1" rx="-0.500000" width="49.000000" height="49.000000" transform="translate(0.500000 0.500000)" fill="#FFFFFF" fill-opacity="0"/>
	<g clip-path="url(#clip177_1816)">
		<path id="Vector" d="M19 3L19 4L15 4L15 47L19 47L19 46L20 46L20 47L21 47L21 46L22 46L22 47L23 47L23 46L24 46L24 47L25 47L25 46L26 46L26 47L27 47L27 46L28 46L28 47L29 47L29 46L30 46L30 47L34 47L34 4L30 4L30 3L19 3ZM13 7.16L3 11.33L3 47L7 47L7 45L8 45L8 47L9 47L9 45L10 45L10 47L11 47L11 45L12 45L12 47L13 47L13 7.16ZM19 8L20 8L20 9L19 9L19 8ZM21 8L22 8L22 9L21 9L21 8ZM23 8L24 8L24 9L23 9L23 8ZM25 8L26 8L26 9L25 9L25 8ZM27 8L28 8L28 9L27 9L27 8ZM29 8L30 8L30 9L29 9L29 8ZM19 10L20 10L20 11L19 11L19 10ZM21 10L22 10L22 11L21 11L21 10ZM23 10L24 10L24 11L23 11L23 10ZM25 10L26 10L26 11L25 11L25 10ZM27 10L28 10L28 11L27 11L27 10ZM29 10L30 10L30 11L29 11L29 10ZM12 11.73L12 14L11 14L11 12.12L12 11.73ZM19 12L20 12L20 13L19 13L19 12ZM21 12L22 12L22 13L21 13L21 12ZM23 12L24 12L24 13L23 13L23 12ZM25 12L26 12L26 13L25 13L25 12ZM27 12L28 12L28 13L27 13L27 12ZM29 12L30 12L30 13L29 13L29 12ZM36 12L36 16L37 16L37 17L36 17L36 18L37 18L37 19L36 19L36 20L37 20L37 21L36 21L36 22L37 22L37 23L36 23L36 24L37 24L37 25L36 25L36 26L37 26L37 27L36 27L36 28L37 28L37 29L36 29L36 30L37 30L37 31L36 31L36 32L37 32L37 33L36 33L36 34L37 34L37 35L36 35L36 36L37 36L37 37L36 37L36 38L37 38L37 39L36 39L36 40L37 40L37 41L36 41L36 42L37 42L37 43L36 43L36 44L37 44L37 45L36 45L36 46L37 46L37 47L38 47L38 46L40 46L40 47L41 47L41 46L43 46L43 47L47 47L47 12L36 12ZM10 12.5L10 14L9 14L9 12.88L10 12.5ZM8 13.26L8 14L7 14L7 13.65L8 13.26ZM19 14L20 14L20 15L19 15L19 14ZM21 14L22 14L22 15L21 15L21 14ZM23 14L24 14L24 15L23 15L23 14ZM25 14L26 14L26 15L25 15L25 14ZM27 14L28 14L28 15L27 15L27 14ZM29 14L30 14L30 15L29 15L29 14ZM7 15L8 15L8 17L7 17L7 15ZM9 15L10 15L10 17L9 17L9 15ZM11 15L12 15L12 17L11 17L11 15ZM19 16L20 16L20 17L19 17L19 16ZM21 16L22 16L22 17L21 17L21 16ZM23 16L24 16L24 17L23 17L23 16ZM25 16L26 16L26 17L25 17L25 16ZM27 16L28 16L28 17L27 17L27 16ZM29 16L30 16L30 17L29 17L29 16ZM38 16L40 16L40 17L38 17L38 16ZM41 16L43 16L43 17L41 17L41 16ZM7 18L8 18L8 20L7 20L7 18ZM9 18L10 18L10 20L9 20L9 18ZM11 18L12 18L12 20L11 20L11 18ZM19 18L20 18L20 19L19 19L19 18ZM21 18L22 18L22 19L21 19L21 18ZM23 18L24 18L24 19L23 19L23 18ZM25 18L26 18L26 19L25 19L25 18ZM27 18L28 18L28 19L27 19L27 18ZM29 18L30 18L30 19L29 19L29 18ZM38 18L40 18L40 19L38 19L38 18ZM41 18L43 18L43 19L41 19L41 18ZM19 20L20 20L20 21L19 21L19 20ZM21 20L22 20L22 21L21 21L21 20ZM23 20L24 20L24 21L23 21L23 20ZM25 20L26 20L26 21L25 21L25 20ZM27 20L28 20L28 21L27 21L27 20ZM29 20L30 20L30 21L29 21L29 20ZM38 20L40 20L40 21L38 21L38 20ZM41 20L43 20L43 21L41 21L41 20ZM7 21L8 21L8 23L7 23L7 21ZM9 21L10 21L10 23L9 23L9 21ZM11 21L12 21L12 23L11 23L11 21ZM19 22L20 22L20 23L19 23L19 22ZM21 22L22 22L22 23L21 23L21 22ZM23 22L24 22L24 23L23 23L23 22ZM25 22L26 22L26 23L25 23L25 22ZM27 22L28 22L28 23L27 23L27 22ZM29 22L30 22L30 23L29 23L29 22ZM38 22L40 22L40 23L38 23L38 22ZM41 22L43 22L43 23L41 23L41 22ZM7 24L8 24L8 26L7 26L7 24ZM9 24L10 24L10 26L9 26L9 24ZM11 24L12 24L12 26L11 26L11 24ZM19 24L20 24L20 25L19 25L19 24ZM21 24L22 24L22 25L21 25L21 24ZM23 24L24 24L24 25L23 25L23 24ZM25 24L26 24L26 25L25 25L25 24ZM27 24L28 24L28 25L27 25L27 24ZM29 24L30 24L30 25L29 25L29 24ZM38 24L40 24L40 25L38 25L38 24ZM41 24L43 24L43 25L41 25L41 24ZM19 26L20 26L20 27L19 27L19 26ZM21 26L22 26L22 27L21 27L21 26ZM23 26L24 26L24 27L23 27L23 26ZM25 26L26 26L26 27L25 27L25 26ZM27 26L28 26L28 27L27 27L27 26ZM29 26L30 26L30 27L29 27L29 26ZM38 26L40 26L40 27L38 27L38 26ZM41 26L43 26L43 27L41 27L41 26ZM7 27L8 27L8 29L7 29L7 27ZM9 27L10 27L10 29L9 29L9 27ZM11 27L12 27L12 29L11 29L11 27ZM19 28L20 28L20 29L19 29L19 28ZM21 28L22 28L22 29L21 29L21 28ZM23 28L24 28L24 29L23 29L23 28ZM25 28L26 28L26 29L25 29L25 28ZM27 28L28 28L28 29L27 29L27 28ZM29 28L30 28L30 29L29 29L29 28ZM38 28L40 28L40 29L38 29L38 28ZM41 28L43 28L43 29L41 29L41 28ZM7 30L8 30L8 32L7 32L7 30ZM9 30L10 30L10 32L9 32L9 30ZM11 30L12 30L12 32L11 32L11 30ZM19 30L20 30L20 31L19 31L19 30ZM21 30L22 30L22 31L21 31L21 30ZM23 30L24 30L24 31L23 31L23 30ZM25 30L26 30L26 31L25 31L25 30ZM27 30L28 30L28 31L27 31L27 30ZM29 30L30 30L30 31L29 31L29 30ZM38 30L40 30L40 31L38 31L38 30ZM41 30L43 30L43 31L41 31L41 30ZM19 32L20 32L20 33L19 33L19 32ZM21 32L22 32L22 33L21 33L21 32ZM23 32L24 32L24 33L23 33L23 32ZM25 32L26 32L26 33L25 33L25 32ZM27 32L28 32L28 33L27 33L27 32ZM29 32L30 32L30 33L29 33L29 32ZM38 32L40 32L40 33L38 33L38 32ZM41 32L43 32L43 33L41 33L41 32ZM7 33L8 33L8 35L7 35L7 33ZM9 33L10 33L10 35L9 35L9 33ZM11 33L12 33L12 35L11 35L11 33ZM19 34L20 34L20 35L19 35L19 34ZM21 34L22 34L22 35L21 35L21 34ZM23 34L24 34L24 35L23 35L23 34ZM25 34L26 34L26 35L25 35L25 34ZM27 34L28 34L28 35L27 35L27 34ZM29 34L30 34L30 35L29 35L29 34ZM38 34L40 34L40 35L38 35L38 34ZM41 34L43 34L43 35L41 35L41 34ZM7 36L8 36L8 38L7 38L7 36ZM9 36L10 36L10 38L9 38L9 36ZM11 36L12 36L12 38L11 38L11 36ZM19 36L20 36L20 37L19 37L19 36ZM21 36L22 36L22 37L21 37L21 36ZM23 36L24 36L24 37L23 37L23 36ZM25 36L26 36L26 37L25 37L25 36ZM27 36L28 36L28 37L27 37L27 36ZM29 36L30 36L30 37L29 37L29 36ZM38 36L40 36L40 37L38 37L38 36ZM41 36L43 36L43 37L41 37L41 36ZM19 38L20 38L20 39L19 39L19 38ZM21 38L22 38L22 39L21 39L21 38ZM23 38L24 38L24 39L23 39L23 38ZM25 38L26 38L26 39L25 39L25 38ZM27 38L28 38L28 39L27 39L27 38ZM29 38L30 38L30 39L29 39L29 38ZM38 38L40 38L40 39L38 39L38 38ZM41 38L43 38L43 39L41 39L41 38ZM7 39L8 39L8 41L7 41L7 39ZM9 39L10 39L10 41L9 41L9 39ZM11 39L12 39L12 41L11 41L11 39ZM19 40L20 40L20 41L19 41L19 40ZM21 40L22 40L22 41L21 41L21 40ZM23 40L24 40L24 41L23 41L23 40ZM25 40L26 40L26 41L25 41L25 40ZM27 40L28 40L28 41L27 41L27 40ZM29 40L30 40L30 41L29 41L29 40ZM38 40L40 40L40 41L38 41L38 40ZM41 40L43 40L43 41L41 41L41 40ZM7 42L8 42L8 44L7 44L7 42ZM9 42L10 42L10 44L9 44L9 42ZM11 42L12 42L12 44L11 44L11 42ZM19 42L20 42L20 43L19 43L19 42ZM21 42L22 42L22 43L21 43L21 42ZM23 42L24 42L24 43L23 43L23 42ZM25 42L26 42L26 43L25 43L25 42ZM27 42L28 42L28 43L27 43L27 42ZM29 42L30 42L30 43L29 43L29 42ZM38 42L40 42L40 43L38 43L38 42ZM41 42L43 42L43 43L41 43L41 42ZM19 44L20 44L20 45L19 45L19 44ZM21 44L22 44L22 45L21 45L21 44ZM23 44L24 44L24 45L23 45L23 44ZM25 44L26 44L26 45L25 45L25 44ZM27 44L28 44L28 45L27 45L27 44ZM29 44L30 44L30 45L29 45L29 44ZM38 44L40 44L40 45L38 45L38 44ZM41 44L43 44L43 45L41 45L41 44Z" fill="url(#paint_linear_177_1817_0)" fill-opacity="1.000000" fill-rule="nonzero"/>
	</g>
</svg>
