<svg width="50.000000" height="50.000000" viewBox="0 0 50 50" fill="none" xmlns="http://www.w3.org/2000/svg" xmlns:xlink="http://www.w3.org/1999/xlink">
	<desc>
			Created with Pixso.
	</desc>
	<defs>
		<clipPath id="clip177_1786">
			<rect id="icons8_blockchain_technology 1" rx="-0.500000" width="49.000000" height="49.000000" transform="translate(0.500000 0.500000)" fill="white" fill-opacity="0"/>
		</clipPath>
		<linearGradient x1="52.641037" y1="3.000019" x2="3.000134" y2="47.019779" id="paint_linear_177_1787_0" gradientUnits="userSpaceOnUse">
			<stop offset="0.250000" stop-color="#3B768F"/>
			<stop offset="0.536458" stop-color="#3EC6FF"/>
			<stop offset="0.817708" stop-color="#3B768F"/>
		</linearGradient>
	</defs>
	<rect id="icons8_blockchain_technology 1" rx="-0.500000" width="49.000000" height="49.000000" transform="translate(0.500000 0.500000)" fill="#FFFFFF" fill-opacity="0"/>
	<g clip-path="url(#clip177_1786)">
		<path id="Vector" d="M6 3C4.34 3 3 4.34 3 6L3 16C3 17.65 4.34 19 6 19L9 19L9 21C8.99 21.13 9.02 21.26 9.07 21.38C9.12 21.51 9.19 21.62 9.28 21.71C9.38 21.81 9.49 21.88 9.61 21.93C9.73 21.98 9.86 22.01 10 22.01C10.13 22.01 10.26 21.98 10.38 21.93C10.5 21.88 10.61 21.81 10.71 21.71C10.8 21.62 10.87 21.51 10.92 21.38C10.97 21.26 11 21.13 11 21L11 19L16 19C17.65 19 19 17.65 19 16L19 12L24 12C24.13 12 24.26 11.97 24.38 11.92C24.5 11.87 24.62 11.8 24.71 11.71C24.81 11.61 24.88 11.5 24.93 11.38C24.98 11.26 25.01 11.13 25.01 11C25.01 10.86 24.98 10.73 24.93 10.61C24.88 10.49 24.81 10.38 24.71 10.28C24.62 10.19 24.5 10.12 24.38 10.07C24.26 10.02 24.13 9.99 24 10L19 10L19 6C19 4.34 17.65 3 16 3L6 3ZM34 3C32.34 3 31 4.34 31 6L31 10L28 10C27.86 9.99 27.73 10.02 27.61 10.07C27.49 10.12 27.37 10.19 27.28 10.28C27.18 10.38 27.11 10.49 27.06 10.61C27.01 10.73 26.98 10.86 26.98 11C26.98 11.13 27.01 11.26 27.06 11.38C27.11 11.5 27.18 11.61 27.28 11.71C27.37 11.8 27.49 11.87 27.61 11.92C27.73 11.97 27.86 12 28 12L31 12L31 16C31 17.65 32.34 19 34 19L38 19L38 24C37.99 24.13 38.02 24.26 38.07 24.38C38.12 24.51 38.19 24.62 38.28 24.71C38.38 24.81 38.49 24.88 38.61 24.93C38.73 24.98 38.86 25.01 39 25.01C39.13 25.01 39.26 24.98 39.38 24.93C39.5 24.88 39.61 24.81 39.71 24.71C39.8 24.62 39.87 24.51 39.92 24.38C39.97 24.26 40 24.13 40 24L40 19L44 19C45.65 19 47 17.65 47 16L47 6C47 4.34 45.65 3 44 3L34 3ZM9.98 23.98C9.71 23.99 9.46 24.09 9.28 24.28C9.09 24.47 8.99 24.73 9 25L9 31L6 31C4.34 31 3 32.34 3 34L3 44C3 45.65 4.34 47 6 47L16 47C17.65 47 19 45.65 19 44L19 40L22 40C22.13 40 22.26 39.97 22.38 39.92C22.5 39.87 22.62 39.8 22.71 39.71C22.81 39.61 22.88 39.5 22.93 39.38C22.98 39.26 23.01 39.13 23.01 39C23.01 38.86 22.98 38.73 22.93 38.61C22.88 38.49 22.81 38.38 22.71 38.28C22.62 38.19 22.5 38.12 22.38 38.07C22.26 38.02 22.13 37.99 22 38L19 38L19 34C19 32.34 17.65 31 16 31L11 31L11 25C11 24.86 10.97 24.73 10.92 24.6C10.87 24.48 10.8 24.37 10.7 24.27C10.61 24.18 10.49 24.1 10.37 24.05C10.25 24 10.11 23.98 9.98 23.98ZM38.98 26.98C38.71 26.99 38.46 27.09 38.28 27.28C38.09 27.47 37.99 27.73 38 28L38 30L34 30C32.34 30 31 31.34 31 33L31 38L26 38C25.86 37.99 25.73 38.02 25.61 38.07C25.49 38.12 25.37 38.19 25.28 38.28C25.18 38.38 25.11 38.49 25.06 38.61C25.01 38.73 24.98 38.86 24.98 39C24.98 39.13 25.01 39.26 25.06 39.38C25.11 39.5 25.18 39.61 25.28 39.71C25.37 39.8 25.49 39.87 25.61 39.92C25.73 39.97 25.86 40 26 40L31 40L31 43C31 44.65 32.34 46 34 46L44 46C45.65 46 47 44.65 47 43L47 33C47 31.34 45.65 30 44 30L40 30L40 28C40 27.86 39.97 27.73 39.92 27.6C39.87 27.48 39.8 27.37 39.7 27.27C39.61 27.18 39.49 27.1 39.37 27.05C39.25 27 39.11 26.98 38.98 26.98Z" fill="url(#paint_linear_177_1787_0)" fill-opacity="1.000000" fill-rule="nonzero"/>
	</g>
</svg>
