<svg width="40.000000" height="40.000000" viewBox="0 0 40 40" fill="none" xmlns="http://www.w3.org/2000/svg" xmlns:xlink="http://www.w3.org/1999/xlink">
	<desc>
			Created with Pixso.
	</desc>
	<defs>
		<clipPath id="clip177_2216">
			<rect id="icons8_headset 1" rx="-0.500000" width="39.000000" height="39.000000" transform="translate(0.500000 0.500000)" fill="white" fill-opacity="0"/>
		</clipPath>
	</defs>
	<rect id="icons8_headset 1" rx="-0.500000" width="39.000000" height="39.000000" transform="translate(0.500000 0.500000)" fill="#FFFFFF" fill-opacity="0"/>
	<g clip-path="url(#clip177_2216)">
		<path id="Vector" d="M20 0.8C13.14 0.8 7.39 5.62 5.95 12.05C6.09 12.03 6.25 12 6.4 12C6.8 12 7.2 12.08 7.57 12.2C8.93 6.59 13.97 2.4 20 2.4C26.01 2.4 31.06 6.59 32.42 12.2C32.79 12.08 33.18 12 33.59 12C33.75 12 33.9 12.03 34.04 12.05C32.6 5.62 26.85 0.8 20 0.8ZM6.4 13.6C5.07 13.6 4 14.67 4 16L4 28C4 29.32 5.07 30.4 6.4 30.4C7.72 30.4 8.79 29.32 8.79 28L8.79 16C8.79 14.67 7.72 13.6 6.4 13.6ZM33.59 13.6C32.27 13.6 31.2 14.67 31.2 16L31.2 28C31.2 29.32 32.27 30.4 33.59 30.4C34.92 30.4 36 29.32 36 28L36 16C36 14.67 34.92 13.6 33.59 13.6ZM2.4 16.1C0.95 17.25 0 19.43 0 22C0 24.56 0.95 26.74 2.4 27.9L2.4 16.1ZM37.59 16.1L37.59 27.9C39.04 26.74 40 24.56 40 22C40 19.43 39.04 17.25 37.59 16.1ZM32.47 31.82C31.76 33.99 29.93 35.2 27.2 35.2L26.32 35.2C26.37 35.45 26.4 35.72 26.4 36C26.4 36.27 26.37 36.54 26.32 36.8L27.2 36.8C30.79 36.8 33.28 34.99 34.09 31.95C33.93 31.97 33.77 32 33.59 32C33.2 32 32.83 31.93 32.47 31.82ZM18.4 33.59C17.07 33.59 16 34.67 16 36C16 37.32 17.07 38.4 18.4 38.4L22.4 38.4C23.72 38.4 24.79 37.32 24.79 36C24.79 34.67 23.72 33.59 22.4 33.59L18.4 33.59Z" fill="#FFFFFF" fill-opacity="1.000000" fill-rule="nonzero"/>
	</g>
</svg>
